<svg xmlns="http://www.w3.org/2000/svg" viewBox="70 0 260 230" aria-hidden="true" role="img">
  <rect x="70" y="0" width="260" height="230" fill="none"/>
  <!-- Arco -->
  <path d="M80 220 V120 Q80 60 120 40 Q200 0 280 40 Q320 60 320 120 V220" fill="none" stroke="#B78C42" stroke-width="2"/>
  <!-- Luna -->
  <path d="M210 80 A18 18 0 1 1 190 62 A14 14 0 1 0 210 80 Z" fill="#B78C42"/>
  <!-- Ramas -->
  <g stroke="#B78C42" stroke-width="1.5" fill="none">
    <path d="M200 90 L200 150"/><circle cx="200" cy="105" r="2" fill="#B78C42"/><circle cx="200" cy="125" r="2" fill="#B78C42"/>
    <path d="M200 110 Q185 115 175 135"/><circle cx="185" cy="118" r="2" fill="#B78C42"/><circle cx="175" cy="135" r="2" fill="#B78C42"/>
    <path d="M200 110 Q215 115 225 135"/><circle cx="215" cy="118" r="2" fill="#B78C42"/><circle cx="225" cy="135" r="2" fill="#B78C42"/>
  </g>
  <!-- Libro abierto -->
  <g stroke="#B78C42" stroke-width="1.8" fill="none">
    <path d="M140 170 Q200 185 260 170"/><path d="M140 170 Q160 210 200 215 Q240 210 260 170"/><path d="M200 165 L200 215"/>
  </g>
</svg>
