<?xml version="1.0" encoding="UTF-8"?>
<svg xmlns="http://www.w3.org/2000/svg" viewBox="0 0 400 320" aria-label="CASA DALO · Del Amor y Otras Lecturas" role="img">
  <rect x="0" y="0" width="400" height="320" fill="none"/>
  <path d="M80 220 V120 Q80 60 120 40 Q200 0 280 40 Q320 60 320 120 V220" fill="none" stroke="#B78C42" stroke-width="2"/>
  <path d="M210 80 A18 18 0 1 1 190 62 A14 14 0 1 0 210 80 Z" fill="#B78C42"/>
  <g stroke="#B78C42" stroke-width="1.5" fill="none">
    <path d="M200 90 L200 150"/><circle cx="200" cy="105" r="2" fill="#B78C42"/><circle cx="200" cy="125" r="2" fill="#B78C42"/>
    <path d="M200 110 Q185 115 175 135"/><circle cx="185" cy="118" r="2" fill="#B78C42"/><circle cx="175" cy="135" r="2" fill="#B78C42"/>
    <path d="M200 110 Q215 115 225 135"/><circle cx="215" cy="118" r="2" fill="#B78C42"/><circle cx="225" cy="135" r="2" fill="#B78C42"/>
  </g>
  <g stroke="#B78C42" stroke-width="1.8" fill="none">
    <path d="M140 170 Q200 185 260 170"/><path d="M140 170 Q160 210 200 215 Q240 210 260 170"/><path d="M200 165 L200 215"/>
  </g>
  <text x="200" y="245" font-family="Cormorant Garamond, 'Times New Roman', serif" font-size="26" letter-spacing="4" text-anchor="middle" fill="#5B1E2D">CASA DALO</text>
  <text x="200" y="270" font-family="Cormorant Garamond, 'Times New Roman', serif" font-size="18" letter-spacing="3" text-anchor="middle" fill="#5B1E2D">DEL AMOR Y OTRAS LECTURAS</text>
  <text x="200" y="295" font-family="Lora, 'Georgia', serif" font-size="13" text-anchor="middle" fill="#B78C42">Libros artesanales para quienes leen con el corazón</text>
</svg>
