<?xml version="1.0" encoding="UTF-8"?>
<svg xmlns="http://www.w3.org/2000/svg" viewBox="0 0 420 460" role="img" aria-label="CASA DALO — Del Amor y Otras Lecturas. Libros artesanales para quienes leen con el corazón.">
  <defs>
    <style type="text/css"><![CDATA[
      .gold { fill: none; stroke: #B78C42; stroke-linecap: round; stroke-linejoin: round; }
      .gold-fill { fill: #B78C42; stroke: none; }
      .title { fill: #5B1E2D; font-family: "Cormorant Garamond", "Times New Roman", Georgia, serif; font-weight: 600; letter-spacing: 0.18em; }
      .subtitle { fill: #5B1E2D; font-family: "Cormorant Garamond", "Times New Roman", Georgia, serif; font-weight: 500; letter-spacing: 0.22em; }
      .tagline { fill: #B78C42; font-family: Lora, Georgia, serif; font-style: italic; font-weight: 400; }
    ]]></style>
  </defs>

  <!-- Outer pointed gothic arch -->
  <path class="gold" stroke-width="2.2"
        d="M 95 248
           L 95 140
           C 95 88 118 52 160 30
           C 190 14 210 8 210 8
           C 210 8 230 14 260 30
           C 302 52 325 88 325 140
           L 325 248" />

  <!-- Inner dotted arch (parallel) -->
  <path class="gold" stroke-width="1.2" stroke-dasharray="1.6 4.2"
        d="M 108 248
           L 108 142
           C 108 96 128 62 164 42
           C 190 28 210 22 210 22
           C 210 22 230 28 256 42
           C 292 62 312 96 312 142
           L 312 248" />

  <!-- Base decorative vertical dotted segments with star terminals -->
  <g class="gold-fill">
    <!-- left base dots -->
    <circle cx="95" cy="254" r="1.1"/>
    <circle cx="95" cy="260" r="1.1"/>
    <circle cx="95" cy="266" r="1.1"/>
    <circle cx="95" cy="272" r="1.1"/>
    <!-- right base dots -->
    <circle cx="325" cy="254" r="1.1"/>
    <circle cx="325" cy="260" r="1.1"/>
    <circle cx="325" cy="266" r="1.1"/>
    <circle cx="325" cy="272" r="1.1"/>
  </g>
  <!-- small cross-stars at base ends -->
  <g class="gold" stroke-width="1.1">
    <path d="M95 280 l0 -5 M92.5 277.5 l5 0"/>
    <path d="M325 280 l0 -5 M322.5 277.5 l5 0"/>
  </g>

  <!-- Arch decorative dots & tiny stars along curve -->
  <g class="gold-fill">
    <circle cx="140" cy="48" r="1.2"/>
    <circle cx="168" cy="28" r="1"/>
    <circle cx="252" cy="28" r="1"/>
    <circle cx="280" cy="48" r="1.2"/>
    <circle cx="118" cy="78" r="0.9"/>
    <circle cx="302" cy="78" r="0.9"/>
  </g>
  <g class="gold" stroke-width="0.9">
    <path d="M152 36 l0 -4 M150 34 l4 0"/>
    <path d="M268 36 l0 -4 M266 34 l4 0"/>
  </g>

  <!-- Crescent moon (near apex) -->
  <path class="gold-fill"
        d="M 224 58
           A 16 16 0 1 1 206 42
           A 12.5 12.5 0 1 0 224 58 Z"/>

  <!-- Stars around moon -->
  <g class="gold-fill">
    <!-- 4-point stars as diamonds + crosses -->
    <path d="M188 48 L189.2 51.5 L192.5 52.5 L189.2 53.5 L188 57 L186.8 53.5 L183.5 52.5 L186.8 51.5 Z"/>
    <path d="M238 42 L239 44.8 L242 45.5 L239 46.2 L238 49 L237 46.2 L234 45.5 L237 44.8 Z"/>
    <path d="M200 72 L200.8 74.2 L203 75 L200.8 75.8 L200 78 L199.2 75.8 L197 75 L199.2 74.2 Z"/>
    <path d="M230 68 L230.7 70 L232.8 70.6 L230.7 71.2 L230 73.2 L229.3 71.2 L227.2 70.6 L229.3 70 Z"/>
    <path d="M176 78 L176.6 79.8 L178.5 80.3 L176.6 80.8 L176 82.6 L175.4 80.8 L173.5 80.3 L175.4 79.8 Z"/>
    <path d="M248 76 L248.6 77.8 L250.5 78.3 L248.6 78.8 L248 80.6 L247.4 78.8 L245.5 78.3 L247.4 77.8 Z"/>
  </g>

  <!-- Botanical sprigs growing from book center -->
  <g class="gold" stroke-width="1.35">
    <!-- center stem -->
    <path d="M210 210 C210 180 210 150 210 118"/>
    <!-- left main branch -->
    <path d="M210 175 C195 168 178 155 168 130"/>
    <path d="M210 155 C198 148 186 138 178 118"/>
    <!-- right main branch -->
    <path d="M210 175 C225 168 242 155 252 130"/>
    <path d="M210 155 C222 148 234 138 242 118"/>
    <!-- outer soft stems -->
    <path d="M210 190 C188 185 165 170 155 145"/>
    <path d="M210 190 C232 185 255 170 265 145"/>
  </g>

  <!-- Leaves (almond shapes) — left -->
  <g class="gold" stroke-width="1.15">
    <path d="M168 130 C160 128 154 136 158 144 C162 140 168 136 168 130"/>
    <path d="M178 118 C170 114 163 120 166 128 C170 124 176 120 178 118"/>
    <path d="M185 148 C176 144 170 152 175 160 C179 155 184 150 185 148"/>
    <path d="M155 145 C146 142 140 150 145 158 C149 153 154 148 155 145"/>
    <path d="M192 165 C184 160 178 168 183 176 C187 171 191 167 192 165"/>
    <path d="M198 135 C191 130 185 136 188 144 C192 140 197 136 198 135"/>
    <path d="M172 160 C164 156 158 164 163 172 C167 167 171 162 172 160"/>
  </g>
  <!-- Leaves — right (mirrored) -->
  <g class="gold" stroke-width="1.15">
    <path d="M252 130 C260 128 266 136 262 144 C258 140 252 136 252 130"/>
    <path d="M242 118 C250 114 257 120 254 128 C250 124 244 120 242 118"/>
    <path d="M235 148 C244 144 250 152 245 160 C241 155 236 150 235 148"/>
    <path d="M265 145 C274 142 280 150 275 158 C271 153 266 148 265 145"/>
    <path d="M228 165 C236 160 242 168 237 176 C233 171 229 167 228 165"/>
    <path d="M222 135 C229 130 235 136 232 144 C228 140 223 136 222 135"/>
    <path d="M248 160 C256 156 262 164 257 172 C253 167 249 162 248 160"/>
  </g>
  <!-- Center leaves -->
  <g class="gold" stroke-width="1.15">
    <path d="M210 118 C203 112 196 118 200 126 C204 122 209 119 210 118"/>
    <path d="M210 118 C217 112 224 118 220 126 C216 122 211 119 210 118"/>
    <path d="M210 145 C203 140 197 146 201 154 C205 150 209 146 210 145"/>
    <path d="M210 145 C217 140 223 146 219 154 C215 150 211 146 210 145"/>
  </g>

  <!-- Tiny bud/flower circles at stem tips -->
  <g class="gold-fill">
    <circle cx="210" cy="112" r="2.2"/>
    <circle cx="168" cy="126" r="1.8"/>
    <circle cx="252" cy="126" r="1.8"/>
    <circle cx="178" cy="114" r="1.5"/>
    <circle cx="242" cy="114" r="1.5"/>
    <circle cx="155" cy="141" r="1.6"/>
    <circle cx="265" cy="141" r="1.6"/>
    <circle cx="198" cy="131" r="1.3"/>
    <circle cx="222" cy="131" r="1.3"/>
  </g>

  <!-- Open book at base of arch -->
  <g class="gold" stroke-width="1.7">
    <!-- spine / center fold -->
    <path d="M210 208 L210 258"/>
    <!-- left page top edge -->
    <path d="M210 212 C185 218 155 222 138 218"/>
    <!-- right page top edge -->
    <path d="M210 212 C235 218 265 222 282 218"/>
    <!-- left page outer + bottom -->
    <path d="M138 218 C132 230 140 250 158 258 C180 262 200 260 210 258"/>
    <!-- right page outer + bottom -->
    <path d="M282 218 C288 230 280 250 262 258 C240 262 220 260 210 258"/>
    <!-- page lines left -->
    <path stroke-width="1.1" d="M210 220 C188 225 165 228 150 225"/>
    <path stroke-width="1.1" d="M210 230 C190 234 170 236 158 234"/>
    <path stroke-width="1.1" d="M210 240 C192 243 175 244 166 243"/>
    <path stroke-width="1.1" d="M210 248 C195 250 182 251 174 250"/>
    <!-- page lines right -->
    <path stroke-width="1.1" d="M210 220 C232 225 255 228 270 225"/>
    <path stroke-width="1.1" d="M210 230 C230 234 250 236 262 234"/>
    <path stroke-width="1.1" d="M210 240 C228 243 245 244 254 243"/>
    <path stroke-width="1.1" d="M210 248 C225 250 238 251 246 250"/>
  </g>

  <!-- Text block -->
  <text class="title" x="210" y="330" font-size="34" text-anchor="middle">CASA DALO</text>
  <text class="subtitle" x="210" y="362" font-size="15" text-anchor="middle">DEL AMOR Y OTRAS LECTURAS</text>

  <!-- Divider with star -->
  <g class="gold" stroke-width="1">
    <line x1="120" y1="380" x2="192" y2="380"/>
    <line x1="228" y1="380" x2="300" y2="380"/>
  </g>
  <path class="gold-fill" d="M210 374 L211.8 378.5 L216.5 380 L211.8 381.5 L210 386 L208.2 381.5 L203.5 380 L208.2 378.5 Z"/>

  <text class="tagline" x="210" y="412" font-size="12.5" text-anchor="middle">Libros artesanales para quienes leen con el corazón.</text>

  <!-- Small botanical ornament at bottom -->
  <g class="gold" stroke-width="1.1">
    <path d="M210 424 C210 430 210 436 210 440"/>
    <path d="M210 430 C204 428 200 432 202 436 C205 434 209 431 210 430"/>
    <path d="M210 430 C216 428 220 432 218 436 C215 434 211 431 210 430"/>
  </g>
</svg>
