<svg xmlns="http://www.w3.org/2000/svg" viewBox="0 0 96 96" role="img" aria-hidden="true">
  <defs>
    <radialGradient id="pf-bg" cx="50%" cy="45%" r="55%">
      <stop offset="0%" stop-color="#FFFDF9"/>
      <stop offset="100%" stop-color="#EFE4D3"/>
    </radialGradient>
  </defs>
  <circle cx="48" cy="48" r="46" fill="url(#pf-bg)"/>
  <circle cx="48" cy="48" r="44.5" fill="none" stroke="#B78C42" stroke-width="1" opacity="0.55"/>
  <path d="M14 28 Q20 22 24 30 M72 28 Q78 22 82 30" stroke="#B78C42" stroke-width="1" fill="none" opacity="0.65"/>
  <!-- book cover -->
  <rect x="26" y="34" width="36" height="40" rx="2" fill="#5B1E2D" stroke="#3d1420" stroke-width="1"/>
  <rect x="30" y="38" width="28" height="32" rx="1" fill="none" stroke="#B78C42" stroke-width="1.1" opacity="0.85"/>
  <!-- foil emblem -->
  <path d="M44 48 L48 42 L52 48 L48 54 Z" fill="#B78C42"/>
  <circle cx="48" cy="48" r="3.5" fill="none" stroke="#D4AF6A" stroke-width="1"/>
  <!-- stamp tool -->
  <path d="M62 28 L70 18" stroke="#5B1E2D" stroke-width="1.6" stroke-linecap="round"/>
  <rect x="66" y="14" width="10" height="6" rx="1" fill="#B78C42" transform="rotate(-35 71 17)"/>
  <!-- floating foil flakes -->
  <path d="M68 42 L69 44.5 L71.5 45.5 L69 46.5 L68 49 L67 46.5 L64.5 45.5 L67 44.5 Z" fill="#B78C42"/>
  <path d="M74 52 L74.8 54 L77 54.8 L74.8 55.6 L74 57.5 L73.2 55.6 L71 54.8 L73.2 54 Z" fill="#D4AF6A"/>
  <circle cx="20" cy="48" r="1.2" fill="#B78C42" opacity="0.7"/>
  <path d="M18 72 Q30 78 42 72" stroke="#5B1E2D" stroke-width="0.85" fill="none" opacity="0.35"/>
</svg>
