<svg xmlns="http://www.w3.org/2000/svg" viewBox="0 0 96 96" role="img" aria-hidden="true">
  <defs>
    <radialGradient id="pi-bg" cx="50%" cy="45%" r="55%">
      <stop offset="0%" stop-color="#FFFDF9"/>
      <stop offset="100%" stop-color="#EFE4D3"/>
    </radialGradient>
  </defs>
  <circle cx="48" cy="48" r="46" fill="url(#pi-bg)"/>
  <circle cx="48" cy="48" r="44.5" fill="none" stroke="#B78C42" stroke-width="1" opacity="0.55"/>
  <!-- botanical corners -->
  <path d="M14 28 Q18 22 22 28 M74 28 Q78 22 82 28" stroke="#B78C42" stroke-width="1" fill="none" opacity="0.7"/>
  <path d="M18 72 Q14 66 20 64 M78 72 Q82 66 76 64" stroke="#5B1E2D" stroke-width="0.9" fill="none" opacity="0.45"/>
  <circle cx="16" cy="22" r="1.2" fill="#B78C42"/><circle cx="80" cy="22" r="1.2" fill="#B78C42"/>
  <!-- press body -->
  <rect x="28" y="38" width="40" height="22" rx="2" fill="#F5EDE2" stroke="#5B1E2D" stroke-width="1.4"/>
  <path d="M32 38 V30 H64 V38" fill="none" stroke="#5B1E2D" stroke-width="1.3"/>
  <rect x="36" y="24" width="24" height="8" rx="1" fill="none" stroke="#B78C42" stroke-width="1.3"/>
  <path d="M48 18 V24" stroke="#B78C42" stroke-width="1.5" stroke-linecap="round"/>
  <circle cx="48" cy="16" r="2.5" fill="#B78C42"/>
  <!-- parchment sheet -->
  <path d="M34 46 H62 V56 H34 Z" fill="#FFFDF9" stroke="#5B1E2D" stroke-width="1"/>
  <path d="M38 50 H58 M38 53 H52" stroke="#B78C42" stroke-width="0.9" stroke-linecap="round" opacity="0.8"/>
  <!-- base -->
  <path d="M24 62 H72" stroke="#5B1E2D" stroke-width="1.5" stroke-linecap="round"/>
  <path d="M28 66 H68" stroke="#B78C42" stroke-width="1.1" stroke-linecap="round" opacity="0.7"/>
  <!-- tiny star -->
  <path d="M70 40 L71 42.5 L73.5 43.5 L71 44.5 L70 47 L69 44.5 L66.5 43.5 L69 42.5 Z" fill="#B78C42" opacity="0.85"/>
</svg>
