<svg xmlns="http://www.w3.org/2000/svg" viewBox="0 0 96 96" role="img" aria-hidden="true">
  <defs>
    <radialGradient id="pc-bg" cx="50%" cy="45%" r="55%">
      <stop offset="0%" stop-color="#FFFDF9"/>
      <stop offset="100%" stop-color="#EFE4D3"/>
    </radialGradient>
  </defs>
  <circle cx="48" cy="48" r="46" fill="url(#pc-bg)"/>
  <circle cx="48" cy="48" r="44.5" fill="none" stroke="#B78C42" stroke-width="1" opacity="0.55"/>
  <path d="M14 30 Q20 24 24 32 M72 30 Q78 24 82 32" stroke="#B78C42" stroke-width="1" fill="none" opacity="0.65"/>
  <circle cx="18" cy="20" r="1.1" fill="#B78C42"/><circle cx="78" cy="20" r="1.1" fill="#B78C42"/>
  <!-- open signatures -->
  <path d="M26 34 Q40 28 48 34 V66 Q40 60 26 66 Z" fill="#FFFDF9" stroke="#5B1E2D" stroke-width="1.35"/>
  <path d="M70 34 Q56 28 48 34 V66 Q56 60 70 66 Z" fill="#F5EDE2" stroke="#5B1E2D" stroke-width="1.35"/>
  <path d="M48 34 V66" stroke="#B78C42" stroke-width="1.2"/>
  <!-- stitch holes + thread -->
  <circle cx="48" cy="40" r="1.4" fill="#5B1E2D"/>
  <circle cx="48" cy="48" r="1.4" fill="#5B1E2D"/>
  <circle cx="48" cy="56" r="1.4" fill="#5B1E2D"/>
  <path d="M48 40 Q58 36 64 28" fill="none" stroke="#B78C42" stroke-width="1.35" stroke-linecap="round"/>
  <!-- needle -->
  <path d="M64 28 L72 18" stroke="#5B1E2D" stroke-width="1.5" stroke-linecap="round"/>
  <ellipse cx="73.5" cy="16" rx="2.2" ry="1.4" fill="none" stroke="#B78C42" stroke-width="1.1" transform="rotate(-35 73.5 16)"/>
  <path d="M20 72 Q30 78 40 74 Q56 68 72 76" stroke="#5B1E2D" stroke-width="0.9" fill="none" opacity="0.4"/>
  <path d="M68 52 L69.2 55 L72.5 56 L69.2 57 L68 60 L66.8 57 L63.5 56 L66.8 55 Z" fill="#B78C42" opacity="0.8"/>
</svg>
