<svg xmlns="http://www.w3.org/2000/svg" viewBox="0 0 96 96" role="img" aria-hidden="true">
  <defs>
    <radialGradient id="pe-bg" cx="50%" cy="45%" r="55%">
      <stop offset="0%" stop-color="#FFFDF9"/>
      <stop offset="100%" stop-color="#EFE4D3"/>
    </radialGradient>
  </defs>
  <circle cx="48" cy="48" r="46" fill="url(#pe-bg)"/>
  <circle cx="48" cy="48" r="44.5" fill="none" stroke="#B78C42" stroke-width="1" opacity="0.55"/>
  <path d="M14 28 Q20 22 24 30 M72 28 Q78 22 82 30" stroke="#B78C42" stroke-width="1" fill="none" opacity="0.65"/>
  <!-- gift box -->
  <rect x="26" y="40" width="44" height="30" rx="2" fill="#F5EDE2" stroke="#5B1E2D" stroke-width="1.4"/>
  <path d="M26 50 H70" stroke="#5B1E2D" stroke-width="1.2"/>
  <path d="M48 40 V70" stroke="#B78C42" stroke-width="2"/>
  <!-- lid ribbon bow -->
  <path d="M48 40 Q40 28 34 34 Q40 38 48 40 Q56 38 62 34 Q56 28 48 40" fill="none" stroke="#5B1E2D" stroke-width="1.4"/>
  <circle cx="48" cy="38" r="2.5" fill="#B78C42"/>
  <!-- wax seal -->
  <circle cx="60" cy="58" r="5" fill="#5B1E2D"/>
  <circle cx="60" cy="58" r="3" fill="none" stroke="#B78C42" stroke-width="1"/>
  <path d="M58.5 58 L60 56.5 L61.5 58 L60 59.5 Z" fill="#B78C42"/>
  <!-- tiny book peeking -->
  <rect x="34" y="32" width="10" height="10" rx="0.8" fill="#5B1E2D" stroke="#3d1420" stroke-width="0.8"/>
  <path d="M36 34 H42 M36 37 H40" stroke="#B78C42" stroke-width="0.7"/>
  <path d="M18 72 Q30 78 44 72" stroke="#5B1E2D" stroke-width="0.85" fill="none" opacity="0.35"/>
  <path d="M74 44 L75.2 47 L78.5 48 L75.2 49 L74 52 L72.8 49 L69.5 48 L72.8 47 Z" fill="#B78C42"/>
</svg>
