<svg xmlns="http://www.w3.org/2000/svg" viewBox="0 0 96 96" role="img" aria-hidden="true">
  <defs>
    <radialGradient id="ppt-bg" cx="50%" cy="45%" r="55%">
      <stop offset="0%" stop-color="#FFFDF9"/>
      <stop offset="100%" stop-color="#EFE4D3"/>
    </radialGradient>
  </defs>
  <circle cx="48" cy="48" r="46" fill="url(#ppt-bg)"/>
  <circle cx="48" cy="48" r="44.5" fill="none" stroke="#B78C42" stroke-width="1" opacity="0.55"/>
  <path d="M14 30 Q20 24 24 32 M72 30 Q78 24 82 32" stroke="#B78C42" stroke-width="1" fill="none" opacity="0.65"/>
  <!-- closed book with edges -->
  <rect x="28" y="36" width="32" height="34" rx="1.5" fill="#5B1E2D" stroke="#3d1420" stroke-width="1"/>
  <path d="M60 38 V68" stroke="#B78C42" stroke-width="3.5" stroke-linecap="round"/>
  <path d="M60 40 V66" stroke="#D4AF6A" stroke-width="1.2" opacity="0.7"/>
  <!-- pages hint -->
  <path d="M32 40 H52 M32 46 H50 M32 52 H48" stroke="#F5EDE2" stroke-width="0.9" opacity="0.55"/>
  <!-- brush -->
  <path d="M64 28 L74 18" stroke="#5B1E2D" stroke-width="1.5" stroke-linecap="round"/>
  <path d="M72 16 L78 14 L80 20 L74 22 Z" fill="#B78C42"/>
  <path d="M64 28 L60 34" stroke="#5B1E2D" stroke-width="2.2" stroke-linecap="round"/>
  <path d="M58 36 Q60 34 62 36 Q60 40 58 36" fill="#5B1E2D"/>
  <!-- paint drip / botanical -->
  <circle cx="66" cy="42" r="1.5" fill="#5B1E2D" opacity="0.7"/>
  <circle cx="70" cy="48" r="1.1" fill="#B78C42"/>
  <path d="M18 70 Q28 78 40 72 Q52 66 70 74" stroke="#5B1E2D" stroke-width="0.85" fill="none" opacity="0.35"/>
  <path d="M20 44 L21 46.5 L23.5 47.5 L21 48.5 L20 51 L19 48.5 L16.5 47.5 L19 46.5 Z" fill="#B78C42" opacity="0.85"/>
</svg>
