<svg xmlns="http://www.w3.org/2000/svg" viewBox="0 0 64 64" fill="none" aria-hidden="true">
  <path d="M32 12l2.2 6.8H42l-5.5 4 2.1 6.7L32 25.8l-6.6 3.7 2.1-6.7-5.5-4h7.8L32 12z" fill="#B78C42"/>
  <path d="M18 34l1.4 4.2H24l-3.5 2.5 1.3 4.1L18 42.4l-3.8 2.4 1.3-4.1L12 38.2h4.6L18 34z" fill="#5B1E2D"/>
  <path d="M46 34l1.4 4.2H52l-3.5 2.5 1.3 4.1L46 42.4l-3.8 2.4 1.3-4.1L40 38.2h4.6L46 34z" fill="#5B1E2D"/>
  <path d="M32 40l1.6 4.8H39l-4.1 3 1.6 4.8L32 49.8l-4.5 2.8 1.6-4.8-4.1-3h5.4L32 40z" fill="#B78C42"/>
</svg>
