<svg xmlns="http://www.w3.org/2000/svg" viewBox="0 0 64 64" fill="none" aria-hidden="true">
  <path d="M32 10l2.4 7.2H42l-6 4.4 2.3 7.2L32 24.6l-6.3 4.2 2.3-7.2-6-4.4h7.6L32 10z" fill="#B78C42"/>
  <path d="M16 36l1.5 4.6H22l-3.8 2.8 1.5 4.5L16 45.3l-3.7 2.6 1.5-4.5L10 40.6h4.5L16 36z" fill="#5B1E2D"/>
  <path d="M48 36l1.5 4.6H54l-3.8 2.8 1.5 4.5L48 45.3l-3.7 2.6 1.5-4.5L42 40.6h4.5L48 36z" fill="#5B1E2D"/>
  <path d="M32 42l1.7 5.2H39l-4.4 3.2 1.7 5.1L32 52.4l-4.3 3.1 1.7-5.1-4.4-3.2h5.3L32 42z" fill="#B78C42"/>
</svg>
