<svg xmlns="http://www.w3.org/2000/svg" viewBox="0 0 64 64" fill="none" aria-hidden="true">
  <path d="M14 18c6-3 12-3 18 0v30c-6-3-12-3-18 0V18z" fill="#FFFDF9" stroke="#5B1E2D" stroke-width="1.45"/>
  <path d="M50 18c-6-3-12-3-18 0v30c6-3 12-3 18 0V18z" fill="#F5EDE2" stroke="#5B1E2D" stroke-width="1.45"/>
  <path d="M32 18v30" stroke="#B78C42" stroke-width="1.2"/>
  <path d="M20 28c4 2 8 2 12 0M20 36c3 2 7 2 12 0" stroke="#B78C42" stroke-width="1" stroke-linecap="round" opacity="0.8"/>
  <path d="M44 28c-4 2-8 2-12 0M44 36c-3 2-7 2-12 0" stroke="#5B1E2D" stroke-width="1" stroke-linecap="round" opacity="0.55"/>
</svg>
