<svg xmlns="http://www.w3.org/2000/svg" viewBox="0 0 64 64" fill="none" aria-hidden="true">
  <path d="M12 16c7-4 14-4 20 0v34c-6-4-13-4-20 0V16z" stroke="#5B1E2D" stroke-width="1.55" stroke-linejoin="round"/>
  <path d="M52 16c-7-4-14-4-20 0v34c6-4 13-4 20 0V16z" stroke="#5B1E2D" stroke-width="1.55" stroke-linejoin="round"/>
  <path d="M18 26h8M38 26h8M18 34h6M40 34h6" stroke="#B78C42" stroke-width="1.25" stroke-linecap="round"/>
  <path d="M32 12 L33 14.4 L35.5 15.2 L33 16 L32 18.4 L31 16 L28.5 15.2 L31 14.4 Z" fill="#B78C42"/>
</svg>
